<svg xmlns="http://www.w3.org/2000/svg" width="15" height="88" viewBox="0 0 15 88"><rect width="15" height="44" fill="none"/><path d="M13.98,27.343l-3.5-3.5a5.436,5.436,0,1,0-.778.777l3.5,3.5a.55.55,0,1,0,.778-.778ZM1.959,20.418a4.319,4.319,0,1,1,4.319,4.32A4.323,4.323,0,0,1,1.959,20.418Z" fill="#fff"/><rect y="44" width="15" height="44" fill="none"/><path d="M13.98,71.593l-3.5-3.5a5.436,5.436,0,1,0-.778.777l3.5,3.5a.55.55,0,1,0,.778-.778ZM1.959,64.668a4.319,4.319,0,1,1,4.319,4.32A4.323,4.323,0,0,1,1.959,64.668Z" fill="#86868b"/></svg>